<?xml version="1.0" standalone="no"?>
<!DOCTYPE svg PUBLIC "-//W3C//DTD SVG 20010904//EN"
 "http://www.w3.org/TR/2001/REC-SVG-20010904/DTD/svg10.dtd">
<svg version="1.0" xmlns="http://www.w3.org/2000/svg"
 width="256.000000pt" height="256.000000pt" viewBox="0 0 256.000000 256.000000"
 preserveAspectRatio="xMidYMid meet">
<metadata>
Created by potrace 1.11, written by Peter Selinger 2001-2013
</metadata>
<g transform="translate(0.000000,256.000000) scale(0.100000,-0.100000)"
fill="#000000" stroke="none">
<path d="M558 2439 c-17 -9 -18 -42 -18 -465 l0 -454 25 -10 25 -10 0 -214 c0
-206 -1 -215 -20 -221 -20 -6 -20 -13 -18 -468 l3 -462 705 0 705 0 3 453 c2
442 2 452 -18 469 -19 16 -20 29 -20 230 0 200 1 214 20 233 19 19 20 33 20
459 0 386 -2 441 -16 455 -14 14 -90 16 -697 16 -445 -1 -688 -4 -699 -11z
m1350 -466 l-3 -418 -424 -3 -423 -2 7 22 c4 13 10 49 12 81 4 49 1 63 -18 92
-68 99 -209 100 -282 3 -26 -35 -33 -105 -14 -150 8 -20 13 -39 9 -42 -11 -11
-158 -6 -170 6 -9 9 -12 115 -12 413 0 221 3 405 7 408 3 4 300 7 660 7 l653
0 -2 -417z m-908 -581 c0 -68 5 -120 12 -131 25 -41 -16 -71 -97 -71 -59 0
-95 17 -95 46 0 13 5 26 10 29 6 4 10 56 10 123 l0 117 80 0 80 0 0 -113z
m918 -804 l2 -418 -660 0 -660 0 0 413 c0 228 3 417 7 420 3 4 299 6 657 5
l651 -3 3 -417z"/>
<path d="M1004 2237 c-3 -8 -4 -47 -2 -88 l3 -74 250 0 250 0 0 85 0 85 -248
3 c-201 2 -248 0 -253 -11z"/>
<path d="M1012 858 c-16 -16 -16 -150 0 -166 17 -17 479 -17 496 0 16 16 16
150 0 166 -17 17 -479 17 -496 0z"/>
</g>
</svg>
